<svg width="48" height="48" viewBox="0 0 48 48" fill="none" xmlns="http://www.w3.org/2000/svg">
<path d="M24 48C37.2548 48 48 37.2548 48 24C48 10.7452 37.2548 0 24 0C10.7452 0 0 10.7452 0 24C0 37.2548 10.7452 48 24 48Z" fill="#334C8C"/>
<path d="M30.0821 21.7295L29.6843 25.0705C29.6671 25.2257 29.593 25.369 29.4764 25.4729C29.3598 25.5767 29.2088 25.6336 29.0527 25.6326H25.579V35.5484C25.5798 35.6668 25.5338 35.7807 25.451 35.8653C25.3682 35.9499 25.2553 35.9983 25.1369 36H21.5969C21.538 35.9992 21.4798 35.9868 21.4258 35.9635C21.3717 35.9402 21.3227 35.9064 21.2816 35.8642C21.2406 35.822 21.2083 35.7721 21.1865 35.7174C21.1647 35.6626 21.1539 35.6042 21.1548 35.5453L21.1737 25.6326H18.5432C18.3757 25.6326 18.215 25.5661 18.0966 25.4476C17.9782 25.3292 17.9116 25.1686 17.9116 25.0011V21.66C17.9116 21.4925 17.9782 21.3319 18.0966 21.2134C18.215 21.095 18.3757 21.0284 18.5432 21.0284H21.1579V17.7884C21.1579 14.04 23.3874 12 26.6527 12H29.3274C29.4949 12 29.6556 12.0665 29.774 12.185C29.8924 12.3034 29.959 12.4641 29.959 12.6316V15.4453C29.959 15.6128 29.8924 15.7734 29.774 15.8919C29.6556 16.0103 29.4949 16.0768 29.3274 16.0768H27.6885C25.9137 16.1053 25.579 16.9547 25.579 18.2242V21.0189H29.4664C29.555 21.0205 29.6424 21.0407 29.7228 21.0782C29.8032 21.1157 29.8747 21.1698 29.9328 21.2368C29.9909 21.3038 30.0342 21.3823 30.06 21.4672C30.0857 21.5521 30.0932 21.6415 30.0821 21.7295Z" fill="white"/>
</svg>
