<svg width="18" height="14" viewBox="0 0 18 14" fill="none" xmlns="http://www.w3.org/2000/svg">
<path fill-rule="evenodd" clip-rule="evenodd" d="M7.72563 1.75H16.625C17.1082 1.75 17.5 2.14175 17.5 2.625C17.5 3.10825 17.1082 3.5 16.625 3.5H7.72563C7.36528 4.51954 6.39294 5.25 5.25 5.25C4.10706 5.25 3.13472 4.51954 2.77437 3.5H0.875C0.391751 3.5 0 3.10825 0 2.625C0 2.14175 0.391751 1.75 0.875 1.75H2.77437C3.13472 0.730457 4.10706 0 5.25 0C6.39294 0 7.36528 0.730457 7.72563 1.75ZM4.375 2.625C4.375 3.10825 4.76675 3.5 5.25 3.5C5.73325 3.5 6.125 3.10825 6.125 2.625C6.125 2.14175 5.73325 1.75 5.25 1.75C4.76675 1.75 4.375 2.14175 4.375 2.625ZM14.7256 10.5H16.625C17.1082 10.5 17.5 10.8918 17.5 11.375C17.5 11.8582 17.1082 12.25 16.625 12.25H14.7256C14.3653 13.2695 13.3929 14 12.25 14C11.1071 14 10.1347 13.2695 9.77437 12.25H0.875C0.391751 12.25 0 11.8582 0 11.375C0 10.8918 0.391751 10.5 0.875 10.5H9.77437C10.1347 9.48046 11.1071 8.75 12.25 8.75C13.3929 8.75 14.3653 9.48046 14.7256 10.5ZM11.375 11.375C11.375 11.8582 11.7668 12.25 12.25 12.25C12.7332 12.25 13.125 11.8582 13.125 11.375C13.125 10.8918 12.7332 10.5 12.25 10.5C11.7668 10.5 11.375 10.8918 11.375 11.375Z" fill="#242424"/>
</svg>
