<svg width="17" height="24" viewBox="0 0 17 24" fill="none" xmlns="http://www.w3.org/2000/svg">
<path d="M8.03471 0C5.90451 0.00257317 3.86223 0.919081 2.35595 2.54845C0.849666 4.17781 0.00237879 6.38697 0 8.69124C0 14.6385 7.18991 23.3711 7.49772 23.7405C7.56557 23.8222 7.64853 23.8875 7.74124 23.9322C7.83395 23.9769 7.93432 24 8.03583 24C8.13733 24 8.2377 23.9769 8.33041 23.9322C8.42312 23.8875 8.5061 23.8222 8.57395 23.7405C8.87952 23.3711 16.0717 14.6385 16.0717 8.69124C16.0693 6.38655 15.2217 4.17703 13.7149 2.54759C12.2082 0.918154 10.1653 0.00192987 8.03471 0V0ZM8.03471 13.066C7.23482 13.066 6.45289 12.8094 5.7878 12.3287C5.12272 11.848 4.60435 11.1648 4.29825 10.3654C3.99214 9.56601 3.91205 8.68639 4.0681 7.83776C4.22415 6.98914 4.60933 6.20962 5.17494 5.5978C5.74055 4.98598 6.46118 4.56932 7.2457 4.40052C8.03022 4.23171 8.8434 4.31835 9.5824 4.64947C10.3214 4.98058 10.953 5.54131 11.3974 6.26074C11.8418 6.98017 12.079 7.82599 12.079 8.69124C12.079 9.85151 11.6529 10.9642 10.8945 11.7847C10.136 12.6051 9.10733 13.066 8.03471 13.066Z" fill="#279492"/>
</svg>
