<svg width="48" height="48" viewBox="0 0 48 48" fill="none" xmlns="http://www.w3.org/2000/svg">
<path d="M24 48C37.2548 48 48 37.2548 48 24C48 10.7452 37.2548 0 24 0C10.7452 0 0 10.7452 0 24C0 37.2548 10.7452 48 24 48Z" fill="#00A6DE"/>
<path d="M35.9528 16.7368C35.3855 17.589 34.6924 18.3502 33.897 18.9947C33.7968 19.0783 33.7164 19.1831 33.6618 19.3017C33.6071 19.4202 33.5796 19.5494 33.5812 19.68V19.7589C33.572 21.4703 33.2576 23.1663 32.6528 24.7673C32.0297 26.4477 31.1038 27.9997 29.9212 29.3463C28.332 31.1555 26.2876 32.5064 24.0002 33.2589C22.4971 33.7467 20.9257 33.9909 19.3454 33.9821C16.8385 33.9818 14.3763 33.3183 12.2086 32.0589C12.1309 32.0147 12.0698 31.9464 12.0344 31.8644C11.9991 31.7823 11.9915 31.6909 12.0128 31.6042C12.0347 31.5188 12.0845 31.4432 12.1543 31.3894C12.2241 31.3356 12.3099 31.3067 12.3981 31.3073H12.9981C14.9032 31.312 16.7662 30.7467 18.3475 29.6842C17.4052 29.5316 16.5232 29.1218 15.7988 28.5C15.0745 27.8781 14.5358 27.0684 14.2423 26.16C14.2273 26.1145 14.2245 26.0658 14.2344 26.0189C14.2442 25.972 14.2663 25.9286 14.2984 25.893C14.3305 25.8574 14.3714 25.8309 14.417 25.8162C14.4626 25.8016 14.5113 25.7992 14.5581 25.8094C14.8455 25.8635 15.1372 25.891 15.4297 25.8915H15.5402C14.6294 25.4731 13.8593 24.7998 13.3229 23.953C12.7866 23.1062 12.5071 22.1222 12.5181 21.12C12.5184 21.0731 12.5309 21.027 12.5543 20.9864C12.5776 20.9457 12.6112 20.9118 12.6515 20.888C12.6919 20.8642 12.7378 20.8512 12.7847 20.8503C12.8316 20.8495 12.8779 20.8608 12.9191 20.8831C13.2896 21.09 13.6871 21.2441 14.1002 21.341C13.2837 20.5332 12.7585 19.4772 12.6071 18.3387C12.4556 17.2002 12.6865 16.0436 13.2633 15.0505C13.2852 15.0123 13.3159 14.9801 13.353 14.9564C13.39 14.9328 13.4322 14.9185 13.476 14.9148C13.5198 14.911 13.5639 14.918 13.6044 14.935C13.6449 14.9521 13.6806 14.9787 13.7086 15.0126C14.8492 16.4248 16.2617 17.5936 17.8625 18.4496C19.4633 19.3056 21.2197 19.8314 23.0275 19.9958H23.0528C23.0794 19.995 23.1055 19.9888 23.1296 19.9776C23.1537 19.9664 23.1753 19.9505 23.193 19.9307C23.2107 19.9109 23.2242 19.8877 23.2327 19.8625C23.2412 19.8373 23.2444 19.8107 23.2423 19.7842C23.1718 19.1504 23.2124 18.5092 23.3623 17.8894C23.566 17.047 23.9843 16.2715 24.5764 15.6385C25.1684 15.0054 25.9142 14.5364 26.7412 14.2768C27.2718 14.1111 27.8243 14.0259 28.3802 14.0242C29.6406 14.0227 30.858 14.4821 31.8033 15.3158C31.9258 15.4253 32.0843 15.486 32.2486 15.4863C32.3019 15.4851 32.3549 15.4777 32.4065 15.4642C33.2947 15.2397 34.1457 14.8876 34.9328 14.4189C34.9799 14.3899 35.0349 14.3761 35.0901 14.3794C35.1453 14.3828 35.1982 14.4032 35.2414 14.4378C35.2846 14.4723 35.3161 14.5194 35.3315 14.5726C35.3469 14.6257 35.3456 14.6824 35.3275 14.7347C35.0648 15.5614 34.5965 16.3078 33.9665 16.9042C34.534 16.7689 35.0879 16.5818 35.6212 16.3452C35.6739 16.3249 35.7315 16.3215 35.7862 16.3354C35.8409 16.3494 35.8898 16.38 35.9263 16.4231C35.9628 16.4661 35.9849 16.5195 35.9897 16.5757C35.9944 16.6319 35.9815 16.6882 35.9528 16.7368Z" fill="white"/>
</svg>
